<svg width="60" height="56" viewBox="0 0 60 56" fill="none" xmlns="http://www.w3.org/2000/svg">
<path d="M58.8747 10.6023C58.9197 10.3114 58.8257 10.0206 58.6296 9.80615C58.4321 9.59017 58.1489 9.47353 57.8613 9.47353H16.6113H16.2613V9.82353V11.0941V11.4441H16.6113H56.6735L53.7922 30.2141C53.5468 31.5997 53.0718 32.5818 52.3921 33.2179C51.7173 33.8494 50.8005 34.1777 49.5907 34.1777H20.5301C19.2462 34.1777 18.2014 33.7369 17.3376 32.8185C16.4619 31.8874 15.7558 30.447 15.2098 28.4227C15.2096 28.422 15.2094 28.4213 15.2093 28.4206L11.4566 13.7848L11.3729 13.4582L11.3479 13.4636L8.23166 1.39856C8.23164 1.39847 8.23162 1.39839 8.23159 1.3983C8.11521 0.94381 7.69263 0.65 7.23633 0.65H1.61133H1.26133V1V2.27059V2.62059H1.61133H6.43405L15.4833 37.9508C15.4835 37.9518 15.4838 37.9528 15.484 37.9538C16.0594 40.3774 16.8722 42.1412 18.0724 43.2975C19.2851 44.4658 20.8502 44.9735 22.8345 44.9735H54.1113H54.4613V44.6235V43.3512V43.0012H54.1113H22.8363C21.2972 43.0012 20.23 42.6404 19.4191 41.819C18.5907 40.98 17.9839 39.6162 17.4825 37.5016L17.4826 37.5016L17.4812 37.4961L16.86 35.0527C17.9104 35.788 19.1353 36.15 20.5282 36.15H49.587C50.7563 36.15 52.1125 35.9109 53.2836 35.072C54.4629 34.2274 55.4107 32.8063 55.8135 30.5298L55.8136 30.5298L55.8148 30.522L58.8747 10.6023ZM58.8747 10.6023L58.5288 10.5488L58.8748 10.602L58.8747 10.6023ZM43.7113 51.0471C43.7113 53.5558 45.872 55.5618 48.4863 55.5618C51.1007 55.5618 53.2613 53.5558 53.2613 51.0471C53.2613 48.5382 51.0987 46.5324 48.4863 46.5324C45.8739 46.5324 43.7113 48.5382 43.7113 51.0471ZM45.7613 51.0471C45.7613 49.6631 46.9642 48.5029 48.4863 48.5029C50.0085 48.5029 51.2113 49.6631 51.2113 51.0471C51.2113 52.4311 50.0102 53.5912 48.4863 53.5912C46.9625 53.5912 45.7613 52.4311 45.7613 51.0471ZM18.3988 51.0471C18.3988 53.5559 20.5614 55.5618 23.1738 55.5618C25.7862 55.5618 27.9488 53.5559 27.9488 51.0471C27.9488 48.5382 25.7862 46.5324 23.1738 46.5324C20.5614 46.5324 18.3988 48.5382 18.3988 51.0471ZM20.4488 51.0471C20.4488 49.6631 21.6517 48.5029 23.1738 48.5029C24.696 48.5029 25.8988 49.6631 25.8988 51.0471C25.8988 52.431 24.696 53.5912 23.1738 53.5912C21.6517 53.5912 20.4488 52.431 20.4488 51.0471Z" fill="white" stroke="white" stroke-width="0.7"/>
</svg>
