<svg width="56" height="56" viewBox="0 0 56 56" fill="none" xmlns="http://www.w3.org/2000/svg">
<path d="M44.0984 54.9265H43.7484H42.3984H42.0484V54.5765V41.3412C42.0484 35.2506 37.6497 29.996 31.3122 28.5816L31.3113 28.5814C30.8969 28.4878 30.5672 28.1507 30.5246 27.7173C30.4798 27.2803 30.7403 26.885 31.1346 26.7191L31.1351 26.7189C33.8586 25.5784 35.6003 23.0421 35.6003 20.2724C35.6003 16.3982 32.2447 13.2088 28.0753 13.2088C23.9059 13.2088 20.5503 16.3965 20.5503 20.2724C20.5503 23.0438 22.2938 25.5801 25.0154 26.7189L25.016 26.7191C25.4126 26.8859 25.6681 27.2822 25.6262 27.716L25.6262 27.7162C25.5842 28.1483 25.2558 28.4896 24.8381 28.5817C18.5007 29.9962 14.1003 35.2508 14.1003 41.3412V54.5765V54.9265H13.7503H12.3984H12.0484V54.5765V41.3412C12.0484 35.0631 16.0952 29.5866 22.1113 27.3334C19.8684 25.6466 18.4984 23.062 18.4984 20.2724C18.4984 16.7024 20.7025 13.6224 23.8711 12.1552C24.1756 11.373 24.3484 10.4516 24.3484 9.57647C24.3484 5.69813 21.0709 2.62059 16.8234 2.62059C12.5758 2.62059 9.29656 5.69823 9.29656 9.57647C9.29656 12.3694 11.0868 15.0091 13.7614 16.1306L44.0984 54.9265ZM44.0984 54.9265L44.0984 54.5765L44.1003 41.343C44.1003 35.0649 40.0535 29.5884 34.0374 27.3352C36.2803 25.6483 37.6503 23.0636 37.6503 20.2724C37.6503 16.7005 35.4461 13.6221 32.2756 12.1551C31.9698 11.3718 31.7984 10.4504 31.7984 9.57647C31.7984 5.69813 35.0759 2.62059 39.3234 2.62059C43.5709 2.62059 46.8484 5.69813 46.8484 9.57647C46.8484 12.3696 45.0579 15.0095 42.3849 16.1308L42.3846 16.1309C41.9903 16.2967 41.7298 16.6921 41.7746 17.1291C41.8172 17.5624 42.1469 17.8996 42.5613 17.9932L42.5622 17.9934C48.8997 19.4078 53.2984 24.6623 53.2984 30.7529V43.9882V44.3382H53.6484H55.0003H55.3503V43.9882V30.7529C55.3503 24.469 51.2952 18.9891 45.27 16.7389M44.0984 54.9265L45.27 16.7389M45.27 16.7389C47.4994 15.0315 48.9003 12.3747 48.9003 9.57647C48.9003 4.63008 44.579 0.65 39.3234 0.65C34.0678 0.65 29.7466 4.63008 29.7466 9.57647C29.7466 10.1905 29.8116 10.8101 29.9346 11.4113C28.7218 11.1894 27.424 11.1894 26.2122 11.4112C26.3346 10.8102 26.3984 10.1898 26.3984 9.57647C26.3984 4.63017 22.0791 0.65 16.8234 0.65C11.5677 0.65 7.24844 4.63017 7.24844 9.57647C7.24844 12.3745 8.64596 15.0314 10.8767 16.739C4.85167 18.9892 0.798438 24.4692 0.798438 30.7529V43.9882V44.3382H1.14844H2.49844H2.84844V43.9882V30.7529C2.84844 24.6624 7.24701 19.4079 13.5844 17.9934C13.5845 17.9934 13.5846 17.9934 13.5847 17.9934L13.5084 17.6518M45.27 16.7389L13.7619 16.1307L13.6266 16.4535C13.8928 16.5647 14.0522 16.8224 14.0241 17.0941M13.5084 17.6518C13.7897 17.59 13.9978 17.3641 14.0241 17.0941M13.5084 17.6518C7.02469 19.0988 2.49844 24.4847 2.49844 30.7529V43.6382M13.5084 17.6518L2.49844 43.6382M14.0241 17.0941L14.3722 17.1301C14.3722 17.1298 14.3723 17.1295 14.3723 17.1291C14.3723 17.1287 14.3724 17.1284 14.3724 17.128L14.0241 17.0941ZM2.49844 43.6382V43.9882H2.14844L2.49844 43.6382ZM18.6058 42.0359L18.6052 42.0355C18.2467 41.7892 18.0828 41.3419 18.2269 40.9236C18.3691 40.5111 18.7701 40.2482 19.1991 40.2482H25.2403L27.1022 34.8576C27.1024 34.857 27.1026 34.8565 27.1028 34.8559C27.2433 34.4392 27.6443 34.1794 28.0734 34.1794C28.5048 34.1794 28.9036 34.4428 29.0456 34.8548L30.9085 40.2482H36.9497C37.3816 40.2482 37.7789 40.5118 37.923 40.9215L37.9237 40.9236C38.0674 41.3405 37.9052 41.7905 37.5448 42.0359L18.6058 42.0359ZM18.6058 42.0359L23.4741 45.3669L21.6176 50.735C21.6175 50.7353 21.6174 50.7356 21.6173 50.7359C21.4703 51.1552 21.6352 51.6029 21.9933 51.849C22.3487 52.0932 22.8264 52.0935 23.182 51.8497L18.6058 42.0359ZM24.5498 48.5013L25.6574 45.2973L25.6575 45.297C25.8016 44.8787 25.6376 44.4314 25.2792 44.1851L25.2785 44.1846L22.4065 42.2206H25.9791C26.408 42.2206 26.8091 41.9577 26.9512 41.5452L28.0734 38.2934L29.1957 41.5452C29.3376 41.9572 29.7364 42.2206 30.1678 42.2206H33.7422L30.8711 44.1841L24.5498 48.5013ZM24.5498 48.5013L27.4796 46.5021C27.4796 46.5021 27.4796 46.5021 27.4796 46.5021C27.6585 46.3792 27.8669 46.3188 28.0734 46.3188C28.2799 46.3188 28.4883 46.3792 28.6671 46.502C28.6672 46.5021 28.6672 46.5021 28.6673 46.5021L31.5991 48.5017M24.5498 48.5013L31.5991 48.5017M31.5991 48.5017L30.4914 45.2973L30.4913 45.297C30.3476 44.8801 30.5099 44.4301 30.8702 44.1846L31.5991 48.5017ZM32.6747 45.3669L37.5439 42.0365L23.1829 51.849L28.0735 48.5114L32.9658 51.849C33.1447 51.972 33.3532 52.0324 33.5597 52.0324C33.7656 52.0324 33.9735 51.9723 34.1521 51.85C34.513 51.6047 34.6756 51.1544 34.5318 50.7371L34.5317 50.7368L32.6747 45.3669Z" fill="white" stroke="white" stroke-width="0.7"/>
</svg>
