<svg width="75" height="74" viewBox="0 0 75 74" fill="none" xmlns="http://www.w3.org/2000/svg">
<path d="M20.4569 61.3969L20.4537 61.3946C20.0406 61.0839 19.8708 60.5412 20.0401 60.0495L20.4569 61.3969ZM20.4569 61.3969C20.667 61.5513 20.9154 61.6313 21.168 61.6313C21.4098 61.6313 21.6525 61.5581 21.8612 61.409L37.5742 50.1848L53.2864 61.4084C53.2864 61.4085 53.2865 61.4085 53.2866 61.4086C53.7108 61.7133 54.2841 61.7046 54.6948 61.3945C55.1104 61.0837 55.28 60.5408 55.1106 60.0493L48.9502 42.1278L64.0645 30.928C64.0645 30.928 64.0646 30.9279 64.0646 30.9279C64.4792 30.6227 64.6521 30.0824 64.4891 29.5932C64.3268 29.1066 63.8702 28.775 63.3555 28.775H44.5941L38.7084 10.8473C38.7084 10.8472 38.7083 10.8471 38.7083 10.8471C38.5335 10.314 38.0192 10.0859 37.5742 10.0859C37.1292 10.0859 36.6149 10.314 36.4401 10.8471C36.4401 10.8471 36.4401 10.8472 36.4401 10.8473L30.5543 28.775H11.793C11.2782 28.775 10.8236 29.1043 10.6615 29.5939C10.4995 30.0831 10.6676 30.6213 11.0836 30.9277C11.0837 30.9278 11.0838 30.9279 11.0839 30.928L26.1982 42.1278L20.0402 60.0493L20.4569 61.3969ZM23.5089 57.2998L36.8786 47.7473L36.8786 47.7472C37.2956 47.4494 37.8505 47.4494 38.2675 47.7472L38.2675 47.7473L51.637 57.2997L46.405 42.0757C46.2358 41.5846 46.4047 41.037 46.8266 40.7279C46.8267 40.7279 46.8267 40.7278 46.8268 40.7278L59.7359 31.1625H43.7266C43.2133 31.1625 42.7525 30.8321 42.5924 30.3403C42.5923 30.34 42.5922 30.3396 42.5921 30.3392L37.5741 15.0457L32.5517 30.3392C32.5516 30.3394 32.5516 30.3395 32.5515 30.3396C32.3919 30.8313 31.9336 31.1625 31.4172 31.1625H15.4102L28.3203 40.7286C28.7391 41.0376 28.9078 41.5846 28.7388 42.0754L23.5089 57.2998ZM23.5089 57.2998L28.7387 42.0758L23.5089 57.2998ZM1.22422 37C1.22422 57.0449 17.5294 73.35 37.5742 73.35C57.6191 73.35 73.9242 57.0449 73.9242 37C73.9242 16.9551 57.6191 0.65 37.5742 0.65C17.5294 0.65 1.22422 16.9551 1.22422 37ZM3.61172 37C3.61172 18.2722 18.8464 3.0375 37.5742 3.0375C56.2997 3.0375 71.5367 18.2722 71.5367 37C71.5367 55.7278 56.2997 70.9625 37.5742 70.9625C18.8464 70.9625 3.61172 55.7255 3.61172 37Z" fill="white" stroke="white" stroke-width="0.7"/>
</svg>
