<svg width="62" height="58" viewBox="0 0 62 58" fill="none" xmlns="http://www.w3.org/2000/svg">
<mask id="path-1-outside-1_2003_1166" maskUnits="userSpaceOnUse" x="-0.425781" y="0" width="62" height="58" fill="black">
<rect fill="white" x="-0.425781" width="62" height="58"/>
<path d="M59.8711 57.4706H1.27734V56.1471H8.38672V17.0294H1.27734C0.888672 17.0294 0.574219 16.7335 0.574219 16.3676V12.6912C0.574219 12.3254 0.888672 12.0294 1.27734 12.0294H4.48047V7.17647C4.48047 6.81066 4.79492 6.51471 5.18359 6.51471H12.8691L28.3594 1.04779C28.4395 1.01654 28.5293 1 28.6211 1H32.5273C32.6465 1 32.7559 1.02757 32.8555 1.07537L56.1309 12.0294H59.8711C60.2598 12.0294 60.5742 12.3254 60.5742 12.6912V16.3676C60.5742 16.7335 60.2598 17.0294 59.8711 17.0294H52.7617V28.5735H54.0117C54.4004 28.5735 54.7148 28.8695 54.7148 29.2353V32.9118C54.7148 33.2776 54.4004 33.5735 54.0117 33.5735H50.8086V37.7629H59.8711C60.2598 37.7629 60.5742 38.0588 60.5742 38.4246V47.6158C60.5742 47.9816 60.2598 48.2776 59.8711 48.2776H40.3398C39.9512 48.2776 39.6367 47.9816 39.6367 47.6158V38.4246C39.6367 38.0588 39.9512 37.7629 40.3398 37.7629H49.4023V33.5735H46.1992C45.8105 33.5735 45.4961 33.2776 45.4961 32.9118V29.2353C45.4961 28.8695 45.8105 28.5735 46.1992 28.5735H47.4492V17.0294H33.2305V56.1471H59.8711V57.4706ZM29.3242 56.1471H31.8242V2.32353H29.3242V38.4265C29.3242 38.7923 29.0098 39.0882 28.6211 39.0882H12.9961C12.6074 39.0882 12.293 38.7923 12.293 38.4265V17.0294H9.79297V56.1471H12.293V42.1029C12.293 41.7371 12.6074 41.4412 12.9961 41.4412H28.6211C29.0098 41.4412 29.3242 41.7371 29.3242 42.1029V56.1471ZM13.6992 56.1471H27.918V42.7647H13.6992V56.1471ZM41.043 46.9559H59.166V39.0882H41.043V46.9559ZM13.6992 37.7647H27.3066L13.6992 18.5533V37.7647ZM14.3105 17.0294L27.918 36.2408V17.0294H14.3105ZM46.9023 32.25H53.3066V29.8971H46.9023V32.25ZM48.8555 28.5735H51.3535V17.0294H48.8555V28.5735ZM33.2305 15.7059H59.168V13.3529H33.2305V15.7059ZM1.98047 15.7059H27.918V13.3529H1.98047V15.7059ZM33.2305 12.0294H52.9844L33.2305 2.73346V12.0294ZM13.6992 12.0294H27.918V2.61765L13.6992 7.63603V12.0294ZM5.88672 12.0294H12.293V7.83824H5.88672V12.0294ZM56.668 45.7794H55.2617V40.2647H56.6699L56.668 45.7794ZM52.7617 45.7794H51.3555V40.2647H52.7637L52.7617 45.7794ZM48.8555 45.7794H47.4492V40.2647H48.8574L48.8555 45.7794ZM44.9492 45.7794H43.543V40.2647H44.9512L44.9492 45.7794Z"/>
</mask>
<path d="M59.8711 57.4706H1.27734V56.1471H8.38672V17.0294H1.27734C0.888672 17.0294 0.574219 16.7335 0.574219 16.3676V12.6912C0.574219 12.3254 0.888672 12.0294 1.27734 12.0294H4.48047V7.17647C4.48047 6.81066 4.79492 6.51471 5.18359 6.51471H12.8691L28.3594 1.04779C28.4395 1.01654 28.5293 1 28.6211 1H32.5273C32.6465 1 32.7559 1.02757 32.8555 1.07537L56.1309 12.0294H59.8711C60.2598 12.0294 60.5742 12.3254 60.5742 12.6912V16.3676C60.5742 16.7335 60.2598 17.0294 59.8711 17.0294H52.7617V28.5735H54.0117C54.4004 28.5735 54.7148 28.8695 54.7148 29.2353V32.9118C54.7148 33.2776 54.4004 33.5735 54.0117 33.5735H50.8086V37.7629H59.8711C60.2598 37.7629 60.5742 38.0588 60.5742 38.4246V47.6158C60.5742 47.9816 60.2598 48.2776 59.8711 48.2776H40.3398C39.9512 48.2776 39.6367 47.9816 39.6367 47.6158V38.4246C39.6367 38.0588 39.9512 37.7629 40.3398 37.7629H49.4023V33.5735H46.1992C45.8105 33.5735 45.4961 33.2776 45.4961 32.9118V29.2353C45.4961 28.8695 45.8105 28.5735 46.1992 28.5735H47.4492V17.0294H33.2305V56.1471H59.8711V57.4706ZM29.3242 56.1471H31.8242V2.32353H29.3242V38.4265C29.3242 38.7923 29.0098 39.0882 28.6211 39.0882H12.9961C12.6074 39.0882 12.293 38.7923 12.293 38.4265V17.0294H9.79297V56.1471H12.293V42.1029C12.293 41.7371 12.6074 41.4412 12.9961 41.4412H28.6211C29.0098 41.4412 29.3242 41.7371 29.3242 42.1029V56.1471ZM13.6992 56.1471H27.918V42.7647H13.6992V56.1471ZM41.043 46.9559H59.166V39.0882H41.043V46.9559ZM13.6992 37.7647H27.3066L13.6992 18.5533V37.7647ZM14.3105 17.0294L27.918 36.2408V17.0294H14.3105ZM46.9023 32.25H53.3066V29.8971H46.9023V32.25ZM48.8555 28.5735H51.3535V17.0294H48.8555V28.5735ZM33.2305 15.7059H59.168V13.3529H33.2305V15.7059ZM1.98047 15.7059H27.918V13.3529H1.98047V15.7059ZM33.2305 12.0294H52.9844L33.2305 2.73346V12.0294ZM13.6992 12.0294H27.918V2.61765L13.6992 7.63603V12.0294ZM5.88672 12.0294H12.293V7.83824H5.88672V12.0294ZM56.668 45.7794H55.2617V40.2647H56.6699L56.668 45.7794ZM52.7617 45.7794H51.3555V40.2647H52.7637L52.7617 45.7794ZM48.8555 45.7794H47.4492V40.2647H48.8574L48.8555 45.7794ZM44.9492 45.7794H43.543V40.2647H44.9512L44.9492 45.7794Z" fill="white"/>
<path d="M59.8711 57.4706H1.27734V56.1471H8.38672V17.0294H1.27734C0.888672 17.0294 0.574219 16.7335 0.574219 16.3676V12.6912C0.574219 12.3254 0.888672 12.0294 1.27734 12.0294H4.48047V7.17647C4.48047 6.81066 4.79492 6.51471 5.18359 6.51471H12.8691L28.3594 1.04779C28.4395 1.01654 28.5293 1 28.6211 1H32.5273C32.6465 1 32.7559 1.02757 32.8555 1.07537L56.1309 12.0294H59.8711C60.2598 12.0294 60.5742 12.3254 60.5742 12.6912V16.3676C60.5742 16.7335 60.2598 17.0294 59.8711 17.0294H52.7617V28.5735H54.0117C54.4004 28.5735 54.7148 28.8695 54.7148 29.2353V32.9118C54.7148 33.2776 54.4004 33.5735 54.0117 33.5735H50.8086V37.7629H59.8711C60.2598 37.7629 60.5742 38.0588 60.5742 38.4246V47.6158C60.5742 47.9816 60.2598 48.2776 59.8711 48.2776H40.3398C39.9512 48.2776 39.6367 47.9816 39.6367 47.6158V38.4246C39.6367 38.0588 39.9512 37.7629 40.3398 37.7629H49.4023V33.5735H46.1992C45.8105 33.5735 45.4961 33.2776 45.4961 32.9118V29.2353C45.4961 28.8695 45.8105 28.5735 46.1992 28.5735H47.4492V17.0294H33.2305V56.1471H59.8711V57.4706ZM29.3242 56.1471H31.8242V2.32353H29.3242V38.4265C29.3242 38.7923 29.0098 39.0882 28.6211 39.0882H12.9961C12.6074 39.0882 12.293 38.7923 12.293 38.4265V17.0294H9.79297V56.1471H12.293V42.1029C12.293 41.7371 12.6074 41.4412 12.9961 41.4412H28.6211C29.0098 41.4412 29.3242 41.7371 29.3242 42.1029V56.1471ZM13.6992 56.1471H27.918V42.7647H13.6992V56.1471ZM41.043 46.9559H59.166V39.0882H41.043V46.9559ZM13.6992 37.7647H27.3066L13.6992 18.5533V37.7647ZM14.3105 17.0294L27.918 36.2408V17.0294H14.3105ZM46.9023 32.25H53.3066V29.8971H46.9023V32.25ZM48.8555 28.5735H51.3535V17.0294H48.8555V28.5735ZM33.2305 15.7059H59.168V13.3529H33.2305V15.7059ZM1.98047 15.7059H27.918V13.3529H1.98047V15.7059ZM33.2305 12.0294H52.9844L33.2305 2.73346V12.0294ZM13.6992 12.0294H27.918V2.61765L13.6992 7.63603V12.0294ZM5.88672 12.0294H12.293V7.83824H5.88672V12.0294ZM56.668 45.7794H55.2617V40.2647H56.6699L56.668 45.7794ZM52.7617 45.7794H51.3555V40.2647H52.7637L52.7617 45.7794ZM48.8555 45.7794H47.4492V40.2647H48.8574L48.8555 45.7794ZM44.9492 45.7794H43.543V40.2647H44.9512L44.9492 45.7794Z" stroke="white" mask="url(#path-1-outside-1_2003_1166)"/>
</svg>
