<svg width="63" height="56" viewBox="0 0 63 56" fill="none" xmlns="http://www.w3.org/2000/svg">
<path d="M1.8593 6.15909L2.01571 6.45352L2.31739 6.31159L9.27836 3.03673L29.5482 42.7846C27.7203 43.9708 26.5105 45.9641 26.5105 48.2282C26.5105 51.8901 29.6694 54.8355 33.509 54.8355C37.3485 54.8355 40.5072 51.8921 40.5093 48.2302V48.23C40.5093 47.5324 40.3935 46.8581 40.1805 46.226L61.6803 36.1103L62.0125 35.954L61.8404 35.6296L61.2033 34.4284L61.047 34.1337L60.7451 34.2757L39.217 44.4056C37.9462 42.7183 35.8596 41.6208 33.5109 41.6208C32.8016 41.6208 32.1154 41.7213 31.4688 41.907L10.7195 1.22109L10.7191 1.22037C10.5922 0.972933 10.3686 0.78747 10.103 0.702291C9.83811 0.61737 9.54942 0.636856 9.29841 0.753619L9.29841 0.753615L9.29701 0.754277L1.38222 4.47888L1.04979 4.63532L1.22216 4.95977L1.8593 6.15909ZM33.0434 2.61562L33.0414 2.61658L21.1692 8.20349C20.6478 8.44883 20.4146 9.0645 20.6906 9.58387L36.5201 39.3807C36.7113 39.7406 37.0885 39.9371 37.4663 39.9371C37.6246 39.9371 37.7825 39.9043 37.9339 39.833L57.7195 30.5222C57.7198 30.522 57.72 30.5219 57.7202 30.5218C58.2436 30.2778 58.4748 29.6593 58.1995 29.1411L48.3064 10.5188C48.0367 10.0082 47.3952 9.82812 46.8921 10.0658C46.8919 10.0659 46.8917 10.066 46.8915 10.0661L39.9163 13.3486L34.4559 3.07034C34.4558 3.07008 34.4557 3.06983 34.4556 3.06958C34.188 2.56117 33.5575 2.37771 33.0434 2.61562ZM28.6352 48.2282C28.6352 45.7297 30.801 43.6617 33.509 43.6617C36.2169 43.6617 38.3827 45.7297 38.3827 48.2282C38.3827 50.7267 36.2169 52.7947 33.509 52.7947C30.8029 52.7947 28.6352 50.7266 28.6352 48.2282ZM46.2887 33.6258L37.9375 37.5566L29.01 20.7537L37.3612 16.8229L46.2887 33.6258ZM55.8162 29.1432L48.1971 32.7295L39.2696 15.9247L46.8886 12.3385L55.8162 29.1432ZM32.0718 17.0401L28.0441 18.9355L23.0739 9.57991L27.1016 7.68453L32.0718 17.0401ZM38.0059 14.2467L33.9802 16.142L29.01 6.78641L33.0358 4.89112L38.0059 14.2467Z" fill="white" stroke="white" stroke-width="0.7"/>
</svg>
