<svg width="63" height="59" viewBox="0 0 63 59" fill="none" xmlns="http://www.w3.org/2000/svg">
<path d="M61.0708 58.2088H61.4208V57.8588V56.5262V56.1762H61.0708H58.1957V34.9826V34.6326H57.8457H56.4279H56.0779V34.9826V56.1762H38.5307V34.9826C38.5307 34.4013 38.0371 33.9663 37.4727 33.9663H25.6737C25.1094 33.9663 24.6158 34.4013 24.6158 34.9826V56.1762H7.06663V34.9826V34.6326H6.71663H5.30074H4.95074V34.9826V56.1762H2.07568H1.72568V56.5262V57.8588V58.2088H2.07568H61.0708ZM25.3237 30.1019V30.4521L25.6739 30.4519L37.4729 30.4464L37.8227 30.4462V30.0964V28.7638V28.4136L37.4726 28.4138L25.6736 28.4193L25.3237 28.4195V28.7693V30.1019ZM60.3295 30.1551L60.5686 30.3802L60.8085 30.1558L61.8133 29.2156L62.0857 28.9607L61.8141 28.7051L58.1977 25.3014V16.4743V16.1243H57.8477H56.4298H56.0798V16.4743V23.31L32.3126 0.940855C31.9006 0.553048 31.2439 0.553048 30.8319 0.940855L1.33434 28.7033L1.06354 28.9581L1.33434 29.213L2.33529 30.1551L2.57516 30.3808L2.81504 30.1551L31.5732 3.09039L60.3295 30.1551ZM36.4148 35.9989V56.1762H26.7317V35.9989H36.4148Z" fill="white" stroke="white" stroke-width="0.7"/>
</svg>
