<svg width="62" height="58" viewBox="0 0 62 58" fill="none" xmlns="http://www.w3.org/2000/svg">
<path d="M27.1947 30.4753L12.6059 44.2059H1.27734C0.765095 44.2059 0.324219 44.5997 0.324219 45.1176V48.7941C0.324219 49.3121 0.765095 49.7059 1.27734 49.7059H2.27734V51.5588H1.27734C0.765097 51.5588 0.324219 51.9526 0.324219 52.4706V56.1471C0.324219 56.665 0.765095 57.0588 1.27734 57.0588H59.8711C60.3838 57.0588 60.8242 56.6646 60.8242 56.1452V52.4688C60.8242 51.9508 60.3833 51.557 59.8711 51.557H58.8711V49.7059H59.8711C60.3833 49.7059 60.8242 49.3121 60.8242 48.7941V45.1176C60.8242 44.5997 60.3833 44.2059 59.8711 44.2059H48.5444L33.9539 30.4754C35.9988 29.3692 37.3887 27.2878 37.3887 24.8971V24.6471H37.1387H35.7305H35.4805V24.8971C35.4805 26.7802 34.2673 28.4137 32.5193 29.1235L31.2436 27.9246C31.2436 27.9246 31.2436 27.9245 31.2436 27.9245L31.2435 27.9244L27.1947 30.4753ZM27.1947 30.4753C25.1515 29.3691 23.7617 27.2877 23.7617 24.8971C23.7617 21.6469 26.3256 18.9701 29.6211 18.533V1V0.75H29.8711H31.2773H31.5273V1V19.3824C31.5273 19.9003 31.0865 20.2941 30.5742 20.2941C27.8541 20.2941 25.668 22.3745 25.668 24.8971C25.668 26.7801 26.8828 28.4136 28.6311 29.1235L29.9068 27.9246L29.9069 27.9244L27.1947 30.4753ZM58.918 53.3824V55.2353H2.23047V53.3824H58.918ZM56.9648 49.7059V51.5588H4.18359V49.7059H56.9648ZM57.918 47.8824L2.23047 47.8805V46.0294H58.918V47.8824H57.918ZM45.8246 44.2059H15.3238L29.1603 31.1851C30.0748 31.3678 31.0736 31.3678 31.9882 31.1851L45.8246 44.2059Z" fill="white" stroke="white" stroke-width="0.5"/>
</svg>
