<svg width="63" height="60" viewBox="0 0 63 60" fill="none" xmlns="http://www.w3.org/2000/svg">
<path d="M31.4676 58.6762H31.1176H26.1125C23.5844 58.6762 21.3642 56.9815 20.8626 54.6122L19.9035 50.097C19.2379 49.7706 18.5825 49.4152 17.9486 49.0332L13.2929 50.5157C10.9376 51.2688 8.20258 50.3023 6.94965 48.2574L1.94474 40.0978C0.660965 38.0065 1.13474 35.3355 3.05064 33.7507L3.05068 33.7507L6.70522 30.7286C6.68487 30.3744 6.6754 30.0192 6.6754 29.6631C6.6754 29.3049 6.69603 28.954 6.71908 28.6127L3.04852 25.5754C3.04851 25.5754 3.04849 25.5754 3.04848 25.5754C1.13238 23.9904 0.661214 21.3195 1.94247 19.2286L1.94255 19.2284L6.94762 11.0686L6.94785 11.0683C8.20268 9.02833 10.9392 8.05928 13.2906 8.8124C13.2907 8.81244 13.2908 8.81248 13.291 8.81251L17.9173 10.2852C18.5142 9.92848 19.172 9.58005 19.9038 9.22783L20.8626 4.71376L20.8627 4.71367C21.3665 2.34486 23.5841 0.65 26.1125 0.65H36.1248C38.6529 0.65 40.873 2.34467 41.3747 4.71398L42.3337 9.2288C42.9994 9.55375 43.655 9.90929 44.2891 10.2929L48.9467 8.8104C48.9468 8.81037 48.9468 8.81034 48.9469 8.81032C51.3062 8.05752 54.0388 9.02595 55.2896 11.0666C55.2897 11.0667 55.2897 11.0667 55.2897 11.0668L60.2947 19.2264L60.4875 19.5408L60.1636 19.7169L58.8423 20.4355L58.5505 20.5942L58.3768 20.311L53.3718 12.1514C53.3717 12.1513 53.3717 12.1513 53.3717 12.1512C52.6504 10.9767 51.0421 10.3957 49.6491 10.8367C49.649 10.8367 49.6488 10.8367 49.6487 10.8368L44.4851 12.4814L44.4827 12.4821C44.1667 12.5803 43.8083 12.5442 43.52 12.3588C42.6746 11.8226 41.7833 11.3374 40.8715 10.9191C40.5625 10.7778 40.3321 10.5024 40.2635 10.1699C40.2633 10.1693 40.2632 10.1687 40.2631 10.1681L39.195 5.14367C39.1949 5.14336 39.1948 5.14305 39.1948 5.14275C38.9031 3.79207 37.6249 2.78715 36.1226 2.78715H26.1125C24.6113 2.78715 23.3299 3.79298 23.0447 5.1423L23.0447 5.14256L21.9779 10.1706L21.9779 10.1707C21.9069 10.5046 21.6769 10.7776 21.3682 10.9189C20.3141 11.4051 19.4402 11.8728 18.689 12.3512L18.6877 12.3521C18.4011 12.5329 18.0454 12.5788 17.7195 12.4731C17.7191 12.473 17.7187 12.4728 17.7183 12.4727L12.5884 10.8387C12.5884 10.8387 12.5883 10.8387 12.5882 10.8387C11.1974 10.3977 9.58686 10.9787 8.86556 12.1532C8.86553 12.1533 8.8655 12.1533 8.86548 12.1534L3.8605 20.313L3.86031 20.3133C3.12735 21.5055 3.38961 23.0378 4.5018 23.956L4.50205 23.9562L8.5973 27.3435L8.59762 27.3437C8.8591 27.5605 9.00474 27.8855 8.98219 28.2252L8.98188 28.2298L8.98185 28.2298L8.96294 28.4671C8.96291 28.4675 8.96288 28.4678 8.96286 28.4682C8.96101 28.4933 8.95917 28.5184 8.95733 28.5434C8.92926 28.9248 8.90237 29.2902 8.90237 29.6631C8.90237 30.1502 8.92315 30.6345 8.95868 31.1164L8.95887 31.119C8.98142 31.4586 8.83577 31.7836 8.57429 32.0004L8.57402 32.0006L4.50228 35.3698L31.4676 58.6762ZM31.4676 58.6762V58.3262M31.4676 58.6762V58.3262M31.4676 58.3262V56.889V56.539H31.1176H26.1083C24.6068 56.539 23.3275 55.5369 23.0404 54.1874L21.9737 49.1596L21.9736 49.1595C21.9029 48.8268 21.6763 48.5538 21.3677 48.41L21.3658 48.4091C20.4539 47.9908 19.562 47.5033 18.7136 46.9664L18.7125 46.9657C18.4275 46.7869 18.0772 46.7422 17.7515 46.8444L17.7501 46.8448L12.5881 48.4875L12.5877 48.4877C11.1973 48.9323 9.58494 48.3496 8.86569 47.1752L8.86556 47.175L3.8605 39.0152L3.86043 39.015M31.4676 58.3262L3.86043 39.015M3.86043 39.015C3.12753 37.8212 3.3913 36.2905 4.50211 35.37L3.86043 39.015ZM41.3715 58.3262V58.6762H41.7215H50.2047C56.6446 58.6762 61.922 53.7387 61.9242 47.6275V47.6274V43.6353V43.2854H61.5742H60.0451H59.6951V43.6353V47.6274C59.6951 52.5223 55.4588 56.539 50.2047 56.539H41.7215H41.3715V56.889V58.3262ZM36.1226 47.9774H36.4726V47.6274V43.6373C36.4726 38.7425 40.709 34.7257 45.9631 34.7257H54.4462H54.7962V34.3757V32.9366V32.5866H54.4462H45.9631C39.5232 32.5866 34.2457 37.5241 34.2457 43.6353V47.6274V47.9774H34.5957H36.1226ZM31.1176 40.7118H31.4676V40.3619V38.9247V38.5747H31.1176C25.8656 38.5747 21.6271 34.556 21.6271 29.6631C21.6271 24.7702 25.8635 20.7515 31.1176 20.7515C36.3717 20.7515 40.608 24.7682 40.608 29.6631V30.0131H40.958H42.485H42.835V29.6631C42.835 23.5498 37.5575 18.6143 31.1176 18.6143C24.6755 18.6143 19.4001 23.5498 19.4001 29.6631C19.4001 35.7743 24.6755 40.7118 31.1176 40.7118ZM42.7288 45.6314C42.7288 48.4411 45.1495 50.692 48.0839 50.692C51.0183 50.692 53.4389 48.4411 53.4389 45.6314C53.4389 42.8216 51.016 40.5707 48.0839 40.5707C45.1517 40.5707 42.7288 42.8216 42.7288 45.6314ZM44.9558 45.6314C44.9558 44.0381 46.3396 42.7079 48.0839 42.7079C49.8282 42.7079 51.212 44.0381 51.212 45.6314C51.212 47.2248 49.8302 48.5549 48.0839 48.5549C46.3376 48.5549 44.9558 47.2248 44.9558 45.6314Z" fill="white" stroke="white" stroke-width="0.7"/>
</svg>
