<svg width="22" height="22" viewBox="0 0 22 22" fill="none" xmlns="http://www.w3.org/2000/svg">
<path d="M0 1.8151C0 1.62547 0.0755821 1.4436 0.210119 1.30952C0.344656 1.17543 0.527127 1.1001 0.717391 1.1001H2.86957C3.02959 1.10014 3.185 1.15351 3.31109 1.25171C3.43718 1.34992 3.52671 1.48732 3.56543 1.64207L4.14652 3.9601H20.8043C20.9133 3.96013 21.0208 3.9849 21.1188 4.03253C21.2167 4.08016 21.3025 4.14941 21.3695 4.235C21.4366 4.3206 21.4832 4.4203 21.5059 4.52653C21.5285 4.63277 21.5266 4.74275 21.5002 4.84813L19.348 13.4281C19.3093 13.5829 19.2198 13.7203 19.0937 13.8185C18.9676 13.9167 18.8122 13.9701 18.6522 13.9701H5.73913C5.57911 13.9701 5.42369 13.9167 5.2976 13.8185C5.17151 13.7203 5.08199 13.5829 5.04326 13.4281L2.31 2.5301H0.717391C0.527127 2.5301 0.344656 2.45477 0.210119 2.32068C0.0755821 2.18659 0 2.00473 0 1.8151ZM4.50522 5.3901L6.2987 12.5401H18.0926L19.8861 5.3901H4.50522ZM7.17391 16.8301C6.79338 16.8301 6.42844 16.9808 6.15937 17.2489C5.89029 17.5171 5.73913 17.8808 5.73913 18.2601C5.73913 18.6394 5.89029 19.0031 6.15937 19.2713C6.42844 19.5394 6.79338 19.6901 7.17391 19.6901C7.55444 19.6901 7.91938 19.5394 8.18846 19.2713C8.45753 19.0031 8.6087 18.6394 8.6087 18.2601C8.6087 17.8808 8.45753 17.5171 8.18846 17.2489C7.91938 16.9808 7.55444 16.8301 7.17391 16.8301ZM4.30435 18.2601C4.30435 17.5016 4.60668 16.7741 5.14482 16.2378C5.68297 15.7014 6.41286 15.4001 7.17391 15.4001C7.93497 15.4001 8.66485 15.7014 9.203 16.2378C9.74115 16.7741 10.0435 17.5016 10.0435 18.2601C10.0435 19.0186 9.74115 19.7461 9.203 20.2824C8.66485 20.8188 7.93497 21.1201 7.17391 21.1201C6.41286 21.1201 5.68297 20.8188 5.14482 20.2824C4.60668 19.7461 4.30435 19.0186 4.30435 18.2601ZM17.2174 16.8301C16.8369 16.8301 16.4719 16.9808 16.2028 17.2489C15.9338 17.5171 15.7826 17.8808 15.7826 18.2601C15.7826 18.6394 15.9338 19.0031 16.2028 19.2713C16.4719 19.5394 16.8369 19.6901 17.2174 19.6901C17.5979 19.6901 17.9629 19.5394 18.2319 19.2713C18.501 19.0031 18.6522 18.6394 18.6522 18.2601C18.6522 17.8808 18.501 17.5171 18.2319 17.2489C17.9629 16.9808 17.5979 16.8301 17.2174 16.8301ZM14.3478 18.2601C14.3478 17.5016 14.6502 16.7741 15.1883 16.2378C15.7264 15.7014 16.4563 15.4001 17.2174 15.4001C17.9784 15.4001 18.7083 15.7014 19.2465 16.2378C19.7846 16.7741 20.087 17.5016 20.087 18.2601C20.087 19.0186 19.7846 19.7461 19.2465 20.2824C18.7083 20.8188 17.9784 21.1201 17.2174 21.1201C16.4563 21.1201 15.7264 20.8188 15.1883 20.2824C14.6502 19.7461 14.3478 19.0186 14.3478 18.2601Z" fill="white"/>
<path d="M0 1.8151C0 1.62547 0.0755821 1.4436 0.210119 1.30952C0.344656 1.17543 0.527127 1.1001 0.717391 1.1001H2.86957C3.02959 1.10014 3.185 1.15351 3.31109 1.25171C3.43718 1.34992 3.52671 1.48732 3.56543 1.64207L4.14652 3.9601H20.8043C20.9133 3.96013 21.0208 3.9849 21.1188 4.03253C21.2167 4.08016 21.3025 4.14941 21.3695 4.235C21.4366 4.3206 21.4832 4.4203 21.5059 4.52653C21.5285 4.63277 21.5266 4.74275 21.5002 4.84813L19.348 13.4281C19.3093 13.5829 19.2198 13.7203 19.0937 13.8185C18.9676 13.9167 18.8122 13.9701 18.6522 13.9701H5.73913C5.57911 13.9701 5.42369 13.9167 5.2976 13.8185C5.17151 13.7203 5.08199 13.5829 5.04326 13.4281L2.31 2.5301H0.717391C0.527127 2.5301 0.344656 2.45477 0.210119 2.32068C0.0755821 2.18659 0 2.00473 0 1.8151ZM4.50522 5.3901L6.2987 12.5401H18.0926L19.8861 5.3901H4.50522ZM7.17391 16.8301C6.79338 16.8301 6.42844 16.9808 6.15937 17.2489C5.89029 17.5171 5.73913 17.8808 5.73913 18.2601C5.73913 18.6394 5.89029 19.0031 6.15937 19.2713C6.42844 19.5394 6.79338 19.6901 7.17391 19.6901C7.55444 19.6901 7.91938 19.5394 8.18846 19.2713C8.45753 19.0031 8.6087 18.6394 8.6087 18.2601C8.6087 17.8808 8.45753 17.5171 8.18846 17.2489C7.91938 16.9808 7.55444 16.8301 7.17391 16.8301ZM4.30435 18.2601C4.30435 17.5016 4.60668 16.7741 5.14482 16.2378C5.68297 15.7014 6.41286 15.4001 7.17391 15.4001C7.93497 15.4001 8.66485 15.7014 9.203 16.2378C9.74115 16.7741 10.0435 17.5016 10.0435 18.2601C10.0435 19.0186 9.74115 19.7461 9.203 20.2824C8.66485 20.8188 7.93497 21.1201 7.17391 21.1201C6.41286 21.1201 5.68297 20.8188 5.14482 20.2824C4.60668 19.7461 4.30435 19.0186 4.30435 18.2601ZM17.2174 16.8301C16.8369 16.8301 16.4719 16.9808 16.2028 17.2489C15.9338 17.5171 15.7826 17.8808 15.7826 18.2601C15.7826 18.6394 15.9338 19.0031 16.2028 19.2713C16.4719 19.5394 16.8369 19.6901 17.2174 19.6901C17.5979 19.6901 17.9629 19.5394 18.2319 19.2713C18.501 19.0031 18.6522 18.6394 18.6522 18.2601C18.6522 17.8808 18.501 17.5171 18.2319 17.2489C17.9629 16.9808 17.5979 16.8301 17.2174 16.8301ZM14.3478 18.2601C14.3478 17.5016 14.6502 16.7741 15.1883 16.2378C15.7264 15.7014 16.4563 15.4001 17.2174 15.4001C17.9784 15.4001 18.7083 15.7014 19.2465 16.2378C19.7846 16.7741 20.087 17.5016 20.087 18.2601C20.087 19.0186 19.7846 19.7461 19.2465 20.2824C18.7083 20.8188 17.9784 21.1201 17.2174 21.1201C16.4563 21.1201 15.7264 20.8188 15.1883 20.2824C14.6502 19.7461 14.3478 19.0186 14.3478 18.2601Z" fill="url(#paint0_linear_2001_1028)"/>
<defs>
<linearGradient id="paint0_linear_2001_1028" x1="-0.56563" y1="28.2409" x2="21.1183" y2="21.3638" gradientUnits="userSpaceOnUse">
<stop stop-color="#0D748B"/>
<stop offset="1" stop-color="#1A0B73"/>
</linearGradient>
</defs>
</svg>
