<svg width="25" height="28" viewBox="0 0 25 28" fill="none" xmlns="http://www.w3.org/2000/svg">
<path d="M15.1641 11.0303V20.7525M9.66406 11.0303V20.7525M4.16406 5.47477V21.8637C4.16406 23.4194 4.16406 24.1967 4.46379 24.7909C4.72745 25.3135 5.14784 25.7393 5.66528 26.0056C6.25297 26.3081 7.02268 26.3081 8.55981 26.3081H16.2683C17.8054 26.3081 18.574 26.3081 19.1617 26.0056C19.6792 25.7393 20.101 25.3135 20.3646 24.7909C20.6641 24.1973 20.6641 23.4206 20.6641 21.868V5.47477M4.16406 5.47477H6.91406M4.16406 5.47477H1.41406M6.91406 5.47477H17.9141M6.91406 5.47477C6.91406 4.18049 6.91406 3.53367 7.12339 3.02319C7.4025 2.34256 7.9375 1.80148 8.61133 1.51955C9.1167 1.30811 9.75772 1.30811 11.0391 1.30811H13.7891C15.0704 1.30811 15.7111 1.30811 16.2164 1.51955C16.8903 1.80148 17.4255 2.34256 17.7046 3.02319C17.9139 3.53367 17.9141 4.18049 17.9141 5.47477M17.9141 5.47477H20.6641M20.6641 5.47477H23.4141" stroke="#11527D" stroke-width="2.5" stroke-linecap="round" stroke-linejoin="round"/>
</svg>
