<svg width="24" height="29" viewBox="0 0 24 29" fill="none" xmlns="http://www.w3.org/2000/svg">
<path d="M7.65476 21.4444H16.1369M7.65476 17.2778H16.1369M13.3101 2.00121C13.175 2 13.0231 2 12.8497 2H6.52409C4.9406 2 4.14827 2 3.54346 2.30276C3.01146 2.56908 2.57924 2.99371 2.30817 3.51638C2 4.11058 2 4.88901 2 6.44472V22.5558C2 24.1115 2 24.889 2.30817 25.4832C2.57924 26.0058 3.01146 26.4312 3.54346 26.6975C4.14769 27 4.93907 27 6.51948 27L17.2722 27C18.8526 27 19.6428 27 20.2471 26.6975C20.7791 26.4312 21.2127 26.0058 21.4838 25.4832C21.7917 24.8895 21.7917 24.1132 21.7917 22.5605V10.7857C21.7917 10.6153 21.7915 10.466 21.7903 10.3333M13.3101 2.00121C13.7136 2.00483 13.9679 2.01954 14.2117 2.07704C14.5002 2.14509 14.7767 2.25731 15.0297 2.40961C15.3149 2.58134 15.5599 2.82196 16.0485 3.30208L20.467 7.64303C20.956 8.12345 21.1991 8.363 21.374 8.64332C21.529 8.89186 21.6437 9.16285 21.713 9.44629C21.7715 9.68581 21.7866 9.93687 21.7903 10.3333M13.3101 2.00121L13.3095 5.88918C13.3095 7.44488 13.3095 8.22243 13.6177 8.81663C13.8888 9.3393 14.321 9.76455 14.853 10.0309C15.4572 10.3333 16.2486 10.3333 17.829 10.3333H21.7903" stroke="#103784" stroke-width="2.5" stroke-linecap="round" stroke-linejoin="round"/>
</svg>
