<svg width="23" height="23" viewBox="0 0 23 23" fill="none" xmlns="http://www.w3.org/2000/svg">
<g clip-path="url(#clip0_2088_8547)">
<path d="M19.9083 4.31042C19.4035 3.8039 18.8038 3.40201 18.1433 3.12779C17.4829 2.85356 16.7749 2.7124 16.0598 2.7124C15.3447 2.7124 14.6367 2.85356 13.9763 3.12779C13.3158 3.40201 12.7161 3.8039 12.2113 4.31042L11.4366 5.09521L10.6618 4.31042C10.1571 3.8039 9.5573 3.40201 8.89688 3.12779C8.23647 2.85356 7.52842 2.7124 6.81334 2.7124C6.09826 2.7124 5.39021 2.85356 4.7298 3.12779C4.06939 3.40201 3.4696 3.8039 2.96484 4.31042C0.831817 6.44344 0.701019 10.0454 3.38742 12.7822L11.4366 20.8313L19.4857 12.7822C22.1721 10.0454 22.0413 6.44344 19.9083 4.31042Z" fill="url(#paint0_linear_2088_8547)"/>
<path d="M19.9083 4.31042C19.4035 3.8039 18.8038 3.40201 18.1433 3.12779C17.4829 2.85356 16.7749 2.7124 16.0598 2.7124C15.3447 2.7124 14.6367 2.85356 13.9763 3.12779C13.3158 3.40201 12.7161 3.8039 12.2113 4.31042L11.4366 5.09521L10.6618 4.31042C10.1571 3.8039 9.5573 3.40201 8.89688 3.12779C8.23647 2.85356 7.52842 2.7124 6.81334 2.7124C6.09826 2.7124 5.39021 2.85356 4.7298 3.12779C4.06939 3.40201 3.4696 3.8039 2.96484 4.31042C0.831817 6.44344 0.701019 10.0454 3.38742 12.7822L11.4366 20.8313L19.4857 12.7822C22.1721 10.0454 22.0413 6.44344 19.9083 4.31042Z" stroke="white" stroke-width="1.66014" stroke-linecap="round" stroke-linejoin="round"/>
<path d="M19.9083 4.31042C19.4035 3.8039 18.8038 3.40201 18.1433 3.12779C17.4829 2.85356 16.7749 2.7124 16.0598 2.7124C15.3447 2.7124 14.6367 2.85356 13.9763 3.12779C13.3158 3.40201 12.7161 3.8039 12.2113 4.31042L11.4366 5.09521L10.6618 4.31042C10.1571 3.8039 9.5573 3.40201 8.89688 3.12779C8.23647 2.85356 7.52842 2.7124 6.81334 2.7124C6.09826 2.7124 5.39021 2.85356 4.7298 3.12779C4.06939 3.40201 3.4696 3.8039 2.96484 4.31042C0.831817 6.44344 0.701019 10.0454 3.38742 12.7822L11.4366 20.8313L19.4857 12.7822C22.1721 10.0454 22.0413 6.44344 19.9083 4.31042Z" stroke="url(#paint1_linear_2088_8547)" stroke-width="1.66014" stroke-linecap="round" stroke-linejoin="round"/>
</g>
<defs>
<linearGradient id="paint0_linear_2088_8547" x1="0.8379" y1="27.2759" x2="21.0014" y2="20.664" gradientUnits="userSpaceOnUse">
<stop stop-color="#0D748B"/>
<stop offset="1" stop-color="#1A0B73"/>
</linearGradient>
<linearGradient id="paint1_linear_2088_8547" x1="0.8379" y1="27.2759" x2="21.0014" y2="20.664" gradientUnits="userSpaceOnUse">
<stop stop-color="#0D748B"/>
<stop offset="1" stop-color="#1A0B73"/>
</linearGradient>
<clipPath id="clip0_2088_8547">
<rect width="22.1352" height="22.1352" fill="white" transform="translate(0.367188 0.708496)"/>
</clipPath>
</defs>
</svg>
