<svg width="20" height="20" viewBox="0 0 20 20" fill="none" xmlns="http://www.w3.org/2000/svg">
<g clip-path="url(#clip0_2001_1034)">
<path d="M17.655 3.25466C17.1989 2.797 16.657 2.43388 16.0603 2.18611C15.4636 1.93833 14.8238 1.81079 14.1777 1.81079C13.5316 1.81079 12.8919 1.93833 12.2951 2.18611C11.6984 2.43388 11.1565 2.797 10.7004 3.25466L10.0004 3.96375L9.30043 3.25466C8.84436 2.797 8.30243 2.43388 7.70572 2.18611C7.10902 1.93833 6.46927 1.81079 5.82316 1.81079C5.17706 1.81079 4.53731 1.93833 3.9406 2.18611C3.34389 2.43388 2.80196 2.797 2.34589 3.25466C0.418615 5.18193 0.300434 8.43648 2.72771 10.9092L10.0004 18.1819L17.2732 10.9092C19.7004 8.43648 19.5823 5.18193 17.655 3.25466Z" stroke="white" stroke-width="1.8" stroke-linecap="round" stroke-linejoin="round"/>
<path d="M17.655 3.25466C17.1989 2.797 16.657 2.43388 16.0603 2.18611C15.4636 1.93833 14.8238 1.81079 14.1777 1.81079C13.5316 1.81079 12.8919 1.93833 12.2951 2.18611C11.6984 2.43388 11.1565 2.797 10.7004 3.25466L10.0004 3.96375L9.30043 3.25466C8.84436 2.797 8.30243 2.43388 7.70572 2.18611C7.10902 1.93833 6.46927 1.81079 5.82316 1.81079C5.17706 1.81079 4.53731 1.93833 3.9406 2.18611C3.34389 2.43388 2.80196 2.797 2.34589 3.25466C0.418615 5.18193 0.300434 8.43648 2.72771 10.9092L10.0004 18.1819L17.2732 10.9092C19.7004 8.43648 19.5823 5.18193 17.655 3.25466Z" stroke="url(#paint0_linear_2001_1034)" stroke-width="1.8" stroke-linecap="round" stroke-linejoin="round"/>
</g>
<defs>
<linearGradient id="paint0_linear_2001_1034" x1="0.424111" y1="24.0049" x2="18.6427" y2="18.0308" gradientUnits="userSpaceOnUse">
<stop stop-color="#0D748B"/>
<stop offset="1" stop-color="#1A0B73"/>
</linearGradient>
<clipPath id="clip0_2001_1034">
<rect width="20" height="20" fill="white"/>
</clipPath>
</defs>
</svg>
