<svg width="28" height="28" viewBox="0 0 28 28" fill="none" xmlns="http://www.w3.org/2000/svg">
<path d="M13.793 9.26628V14.5996M7.56861 3.25L3.04297 7.77565L3.03886 7.7795C2.58039 8.23797 2.35062 8.46774 2.1862 8.73605C2.03999 8.97465 1.93197 9.23507 1.86665 9.50716C1.79297 9.81406 1.79297 10.1401 1.79297 10.7923V17.2077C1.79297 17.8599 1.79297 18.186 1.86665 18.4929C1.93197 18.765 2.03999 19.0251 2.1862 19.2637C2.35106 19.5327 2.58206 19.7637 3.04297 20.2246L7.56861 24.7503C8.02981 25.2115 8.25991 25.4416 8.52903 25.6065C8.76762 25.7527 9.02738 25.8611 9.29948 25.9264C9.60591 26 9.9314 26 10.5817 26H17.003C17.6532 26 17.9801 26 18.2865 25.9264C18.5586 25.8611 18.8187 25.7527 19.0573 25.6065C19.3264 25.4416 19.557 25.2114 20.0182 24.7502L24.5439 20.2246C25.0051 19.7634 25.2352 19.5328 25.4001 19.2637C25.5463 19.0251 25.6534 18.765 25.7188 18.4929C25.7924 18.186 25.793 17.8599 25.793 17.2077V10.7923C25.793 10.1401 25.7924 9.81406 25.7188 9.50716C25.6534 9.23507 25.5463 8.97465 25.4001 8.73606C25.2352 8.46696 25.005 8.23681 24.5439 7.77564L20.0182 3.25C19.5573 2.78909 19.3263 2.55809 19.0573 2.39323C18.8187 2.24702 18.5586 2.139 18.2866 2.07368C17.9797 2 17.6523 2 17 2H10.5846C9.93239 2 9.60638 2 9.29948 2.07368C9.02738 2.139 8.76762 2.24702 8.52902 2.39323C8.26235 2.55664 8.03438 2.78462 7.5815 3.23751L7.56861 3.25ZM13.8594 18.5996V18.7329L13.7266 18.7332V18.5996H13.8594Z" stroke="#103784" stroke-width="2.5" stroke-linecap="round" stroke-linejoin="round"/>
</svg>
