<svg width="16" height="17" viewBox="0 0 16 17" fill="none" xmlns="http://www.w3.org/2000/svg">
<g clip-path="url(#clip0_2076_10462)">
<path d="M6.76412 9.67322C7.69189 10.6144 8.81447 11.341 10.053 11.8021L11.7286 10.4688C11.7782 10.4346 11.8371 10.4162 11.8975 10.4162C11.9578 10.4162 12.0167 10.4346 12.0663 10.4688L15.1775 12.4732C15.2956 12.5442 15.3955 12.6417 15.4695 12.758C15.5435 12.8743 15.5894 13.0062 15.6036 13.1433C15.6178 13.2803 15.6 13.4189 15.5515 13.5479C15.503 13.6768 15.4251 13.7928 15.3241 13.8866L13.8663 15.3266C13.6576 15.5328 13.401 15.6842 13.1195 15.7672C12.838 15.8502 12.5403 15.8622 12.253 15.8021C9.38732 15.2102 6.74595 13.8241 4.63078 11.8021C2.56255 9.75999 1.13135 7.16159 0.510783 4.32211C0.449479 4.03928 0.462274 3.74541 0.547928 3.46898C0.633582 3.19256 0.78919 2.94294 0.999672 2.74433L2.51078 1.28655C2.60429 1.19046 2.71833 1.11676 2.84436 1.07099C2.97039 1.02521 3.10514 1.00854 3.23852 1.02222C3.3719 1.0359 3.50047 1.07958 3.61458 1.14998C3.72869 1.22039 3.82539 1.3157 3.89745 1.42877L5.96856 4.49988C6.00428 4.54811 6.02357 4.60654 6.02357 4.66655C6.02357 4.72657 6.00428 4.78499 5.96856 4.83322L4.60412 6.47322C5.07771 7.68697 5.81555 8.78007 6.76412 9.67322Z" fill="#11527D"/>
</g>
<defs>
<clipPath id="clip0_2076_10462">
<rect width="16" height="16" fill="white" transform="translate(0 0.5)"/>
</clipPath>
</defs>
</svg>
