<svg width="40" height="40" viewBox="0 0 40 40" fill="none" xmlns="http://www.w3.org/2000/svg">
<path d="M40 20C40 31.0457 31.0457 40 20 40C8.9543 40 0 31.0457 0 20C0 8.9543 8.9543 0 20 0C31.0457 0 40 8.9543 40 20Z" fill="white"/>
<path d="M18.0191 24.2533C17.9766 23.7139 17.9553 23.3302 17.9553 23.102C17.9553 22.1478 18.1042 21.2766 18.4021 20.4884C18.7212 19.7001 19.0296 19.1193 19.3274 18.7459C19.6253 18.3726 20.072 17.8955 20.6676 17.3147C21.1995 16.7961 21.5824 16.4123 21.8164 16.1634C22.0717 15.8938 22.3163 15.5515 22.5503 15.1366C22.7843 14.7218 22.9013 14.3069 22.9013 13.892C22.9013 13.3112 22.6567 12.803 22.1674 12.3674C21.6781 11.9318 20.9974 11.714 20.1252 11.714C18.6573 11.714 17.4129 12.3052 16.3918 13.4876L14.2857 11.2162C16.0301 9.45301 18.1149 8.57143 20.54 8.57143C22.3695 8.57143 23.848 9.05889 24.9755 10.0338C26.1029 11.0087 26.6667 12.1704 26.6667 13.5187C26.6667 14.0787 26.5922 14.5973 26.4433 15.0744C26.2944 15.5308 26.0178 16.0182 25.6136 16.5368C25.2095 17.0554 24.901 17.4288 24.6883 17.6569C24.4755 17.8644 24.0394 18.2896 23.38 18.9326C22.678 19.5964 22.1461 20.2498 21.7845 20.8929C21.4441 21.5359 21.2739 22.3553 21.2739 23.3509C21.2739 23.5376 21.2952 23.8384 21.3378 24.2533H18.0191ZM21.3058 29.9161C20.8591 30.2895 20.3273 30.4762 19.7104 30.4762C19.0934 30.4762 18.5616 30.2895 18.1149 29.9161C17.6894 29.5428 17.4767 29.0138 17.4767 28.3293C17.4767 27.624 17.6894 27.0847 18.1149 26.7113C18.5616 26.3379 19.0934 26.1512 19.7104 26.1512C20.3273 26.1512 20.8591 26.3379 21.3058 26.7113C21.7526 27.0847 21.9759 27.624 21.9759 28.3293C21.9759 29.0138 21.7526 29.5428 21.3058 29.9161Z" fill="#11527D"/>
</svg>
