<svg width="20" height="20" viewBox="0 0 20 20" fill="none" xmlns="http://www.w3.org/2000/svg">
<path fill-rule="evenodd" clip-rule="evenodd" d="M14.5398 8.37183C14.5398 11.7787 11.778 14.5406 8.37109 14.5406C4.96419 14.5406 2.20234 11.7787 2.20234 8.37183C2.20234 4.96492 4.96419 2.20308 8.37109 2.20308C11.778 2.20308 14.5398 4.96492 14.5398 8.37183ZM14.6064 13.3344C15.6914 11.9729 16.3398 10.2481 16.3398 8.37183C16.3398 3.97081 12.7721 0.403076 8.37109 0.403076C3.97007 0.403076 0.402344 3.97081 0.402344 8.37183C0.402344 12.7728 3.97007 16.3406 8.37109 16.3406C10.2473 16.3406 11.9721 15.6921 13.3336 14.6071L18.3104 19.5839C18.6618 19.9354 19.2317 19.9354 19.5831 19.5839C19.9346 19.2324 19.9346 18.6626 19.5831 18.3111L14.6064 13.3344Z" fill="white"/>
<path fill-rule="evenodd" clip-rule="evenodd" d="M14.5398 8.37183C14.5398 11.7787 11.778 14.5406 8.37109 14.5406C4.96419 14.5406 2.20234 11.7787 2.20234 8.37183C2.20234 4.96492 4.96419 2.20308 8.37109 2.20308C11.778 2.20308 14.5398 4.96492 14.5398 8.37183ZM14.6064 13.3344C15.6914 11.9729 16.3398 10.2481 16.3398 8.37183C16.3398 3.97081 12.7721 0.403076 8.37109 0.403076C3.97007 0.403076 0.402344 3.97081 0.402344 8.37183C0.402344 12.7728 3.97007 16.3406 8.37109 16.3406C10.2473 16.3406 11.9721 15.6921 13.3336 14.6071L18.3104 19.5839C18.6618 19.9354 19.2317 19.9354 19.5831 19.5839C19.9346 19.2324 19.9346 18.6626 19.5831 18.3111L14.6064 13.3344Z" fill="url(#paint0_linear_2001_1041)"/>
<defs>
<linearGradient id="paint0_linear_2001_1041" x1="-0.108695" y1="26.7635" x2="19.7266" y2="20.9116" gradientUnits="userSpaceOnUse">
<stop stop-color="#0D748B"/>
<stop offset="1" stop-color="#1A0B73"/>
</linearGradient>
</defs>
</svg>
