<svg width="35" height="36" viewBox="0 0 35 36" fill="none" xmlns="http://www.w3.org/2000/svg">
<g clip-path="url(#clip0_2096_4932)">
<rect x="0.371094" width="34.0512" height="35.8095" rx="17.0256" fill="#11527D"/>
<path d="M18.2337 24.1714C11.835 24.1714 8.18527 19.4667 8.0332 11.6381H11.2384C11.3437 17.3841 13.7066 19.818 15.5783 20.3198V11.6381H18.5963V16.5937C20.4446 16.3804 22.3864 14.1222 23.0415 11.6381H26.0595C25.8127 12.9264 25.3206 14.1462 24.6141 15.2213C23.9076 16.2963 23.0019 17.2035 21.9536 17.8859C23.1237 18.5095 24.1573 19.3922 24.986 20.4757C25.8148 21.5591 26.4199 22.8187 26.7614 24.1714H23.4392C23.1326 22.9965 22.5096 21.9448 21.6481 21.1481C20.7866 20.3513 19.725 19.845 18.5963 19.6925V24.1714H18.2337Z" fill="white"/>
</g>
<defs>
<clipPath id="clip0_2096_4932">
<rect width="34.0512" height="35.8095" fill="white" transform="translate(0.371094)"/>
</clipPath>
</defs>
</svg>
