<svg width="35" height="36" viewBox="0 0 35 36" fill="none" xmlns="http://www.w3.org/2000/svg">
<g clip-path="url(#clip0_2076_9449)">
<rect x="0.140625" width="34.0512" height="35.8095" rx="17.0256" fill="#11527D"/>
<path fill-rule="evenodd" clip-rule="evenodd" d="M9.72875 24.2223C9.39482 24.1184 9.09014 23.9336 8.84041 23.6834C8.59068 23.4332 8.40323 23.1251 8.29388 22.7849C7.66902 21.0268 7.48387 13.6854 8.68731 12.2362C9.08784 11.7647 9.65333 11.4745 10.261 11.4284C13.4895 11.072 23.4641 11.1195 24.6097 11.5472C24.9319 11.6545 25.2263 11.8353 25.4708 12.076C25.7153 12.3167 25.9035 12.6111 26.0215 12.9371C26.7042 14.7546 26.7273 21.3594 25.9289 23.1056C25.7171 23.5602 25.3625 23.9284 24.9222 24.151C23.7187 24.7687 11.3256 24.7569 9.72875 24.2223V24.2223ZM14.8549 20.7773L20.6407 17.6887L14.8549 14.5764V20.7773Z" fill="white"/>
</g>
<defs>
<clipPath id="clip0_2076_9449">
<rect width="34.0512" height="35.8095" fill="white" transform="translate(0.140625)"/>
</clipPath>
</defs>
</svg>
